<svg xmlns="http://www.w3.org/2000/svg" version="1.1" xmlns:xlink="http://www.w3.org/1999/xlink" xmlns:svgjs="http://svgjs.dev/svgjs" width="1000" height="623" viewBox="0 0 1000 623"><g transform="matrix(1,0,0,1,-0.6060606060606233,0.2522267206477409)"><svg viewBox="0 0 396 247" data-background-color="#282634" preserveAspectRatio="xMidYMid meet" height="623" width="1000" xmlns="http://www.w3.org/2000/svg" xmlns:xlink="http://www.w3.org/1999/xlink"><defs></defs><g id="tight-bounds" transform="matrix(1,0,0,1,0.2400000000000091,-0.09999999999999432)"><svg viewBox="0 0 395.52 247.2" height="247.2" width="395.52"><g><svg></svg></g><g><svg viewBox="0 0 395.52 247.2" height="247.2" width="395.52"><g transform="matrix(1,0,0,1,75.54432000000001,71.70326823529412)"><svg viewBox="0 0 244.43135999999996 103.79346352941175" height="103.79346352941175" width="244.43135999999996"><g><svg viewBox="0 0 244.43135999999996 103.79346352941175" height="103.79346352941175" width="244.43135999999996"><g><svg viewBox="0 0 244.43135999999996 103.79346352941175" height="103.79346352941175" width="244.43135999999996"><g><svg viewBox="0 0 244.43135999999996 103.79346352941175" height="103.79346352941175" width="244.43135999999996"><g><svg viewBox="0 0 244.43135999999996 103.79346352941175" height="103.79346352941175" width="244.43135999999996"><g><svg viewBox="0 0 244.43135999999996 103.79346352941175" height="103.79346352941175" width="244.43135999999996"><g transform="matrix(1,0,0,1,0,0)"><svg width="244.43135999999996" viewBox="4.65 -34.65 81.6 34.65" height="103.79346352941175" data-palette-color="#ff4057"><path d="M27.03 0L4.65 0 4.65-34.65 12.85-34.65 12.85-6.48 27.88-6.48 27.03 0ZM41.15-34.65L41.15 0 32.95 0 32.95-34.65 41.15-34.65ZM50.92 0L41.4-18.5 50.87-34.65 59.47-34.65 49.67-19.1 60.42 0 50.92 0ZM63.75-34.65L86.25-34.65 86.25-28.65 79.09-28.65 79.09-6.03 86.25-6.03 86.25 0 63.75 0 63.75-6.03 70.9-6.03 70.9-28.65 63.75-28.65 63.75-34.65Z" opacity="1" transform="matrix(1,0,0,1,0,0)" fill="#ff4057" class="undefined-text-0" data-fill-palette-color="primary" id="text-0"></path></svg></g></svg></g></svg></g></svg></g></svg></g></svg></g></svg></g><g><path d="M244.431 200A122.216 122.216 0 1 1 244.431 47.2L235.071 47.2A112.855 112.855 0 1 0 235.071 200L244.431 200" fill="#ff4057" stroke="transparent" data-fill-palette-color="tertiary"></path></g></svg></g></svg><rect width="395.52" height="247.2" fill="none" stroke="none" visibility="hidden"></rect></g></svg></g></svg>